<svg xmlns="http://www.w3.org/2000/svg" viewBox="0 0 538.06 484.78"><defs><style>.cls-1{fill:#2f2e41;}.cls-2{opacity:0.1;isolation:isolate;}.cls-3{fill:#a0616a;}.cls-4{fill:#d0cde1;}.cls-5{fill:#f2f2f2;}</style></defs><title>boiii</title><g id="Layer_2" data-name="Layer 2"><g id="ade8c9af-7e2e-4eda-b5c8-b06129257226"><path class="cls-1" d="M144.73,331.36h36.85l90.78-35.52s64.48-26.32,59.21,23.68-14.47,117.1-14.47,117.1-29-13.16-44.74-9.21-5.26-80.26-5.26-80.26S138.16,409,126.31,401.1s-14.47-63.16-14.47-63.16Z"/><path class="cls-2" d="M144.73,331.36h36.85l90.78-35.52s64.48-26.32,59.21,23.68-14.47,117.1-14.47,117.1-29-13.16-44.74-9.21-5.26-80.26-5.26-80.26S138.16,409,126.31,401.1s-14.47-63.16-14.47-63.16Z"/><path class="cls-3" d="M202.78,216l44.58,64.06,104,86.84S447.36,389.25,434.2,405s-93.42-15.79-93.42-15.79S221.05,302.41,217.1,295.84s-47.37-68.42-47.37-68.42Z"/><path class="cls-2" d="M202.78,216l44.58,64.06,104,86.84S447.36,389.25,434.2,405s-93.42-15.79-93.42-15.79S221.05,302.41,217.1,295.84s-47.37-68.42-47.37-68.42Z"/><path class="cls-4" d="M176.31,164.26l28.95,56.58s-6.58,27.63-17.11,30.26-55.26-34.21-55.26-34.21Z"/><path class="cls-2" d="M176.31,164.26l28.95,56.58s-6.58,27.63-17.11,30.26-55.26-34.21-55.26-34.21Z"/><path class="cls-1" d="M529.45,302.07,538,337.34a2.19,2.19,0,0,1,0,1.19L499.17,459.74a2.2,2.2,0,0,1-2.77,1.43,2.23,2.23,0,0,1-1.52-1.85l-5.36-47.22a2.1,2.1,0,0,1,.09-.93L525.22,301.9a2.2,2.2,0,0,1,4.23.17Z"/><polygon class="cls-5" points="526.31 305.05 534.2 335.31 499.99 445.83 492.1 411.62 526.31 305.05"/><path class="cls-1" d="M353.94,469.52c1.32,3.94,136.84-1.32,138.16-2.64a28.9,28.9,0,0,0,2.89-5.26c1.24-2.63,2.37-5.26,2.37-5.26l-5.26-42.61L357.89,409s-3.36,36.11-4,52.63C353.68,465.79,353.68,468.73,353.94,469.52Z"/><polygon class="cls-2" points="474.99 419.52 477.62 456.36 418.41 456.36 418.41 419.52 474.99 419.52"/><polygon class="cls-2" points="398.68 431.36 399.03 431.29 397.36 447.15 364.47 447.15 364.47 431.36 398.68 431.36"/><path class="cls-2" d="M353.94,469.52c1.32,3.94,136.84-1.32,138.16-2.64a28.9,28.9,0,0,0,2.89-5.26H353.85C353.68,465.79,353.68,468.73,353.94,469.52Z"/><circle class="cls-3" cx="196.05" cy="86.63" r="59.21"/><path class="cls-3" d="M192.1,139.26s-19.73,34.21-23.68,52.63-59.21-36.84-59.21-36.84L102,136s52-24.34,48-44.08S192.1,139.26,192.1,139.26Z"/><path class="cls-3" d="M202.63,241.89l53.94,71.05,129,96.05s93.42,19.74,72.37,34.21S376.31,430,376.31,430s-130.26-69.73-157.89-98.68-78.95-77.63-78.95-77.63Z"/><path class="cls-1" d="M130.26,352.41l15.79,25,94.23-29.64c20.68-6.51,43.35-4.11,61.69,7.44,16.44,10.36,27,26.81,3.29,51.15-47.37,48.68-78.95,22.37-78.95,22.37s-159.21,75-185.52,38.15-27.63-55.26-27.63-55.26S114.47,348.47,130.26,352.41Z"/><path class="cls-4" d="M327.63,439.25s42.1,27.63-7.9,40.79-86.84-5.26-86.84-5.26-43.42,0-43.42-22.37,14.47-25,14.47-25L248.68,434S302.63,419.52,327.63,439.25Z"/><path class="cls-1" d="M244.62,71.73c4,1.8,8,3.93,12.41,4.45s9.37-1,11.44-4.9a15.38,15.38,0,0,0,1.3-7c.16-7.23-.36-15-4.94-20.63-2.91-3.56-7.17-5.8-10.18-9.28-2.16-2.48-3.6-5.5-5.15-8.41C243.63,15,235,4.4,222.88,1.22,217.84-.11,212.55,0,207.34,0l-30.4.43C172,.53,167,.61,162.32,2c-9.79,3-16.91,11.18-23.44,19.05C134,27,129.11,32.92,125.45,39.64a65,65,0,0,0-7.72,31.88A30.09,30.09,0,0,0,118.82,80a46.88,46.88,0,0,0,3.32,7.28c5.7,11.2,9.09,25.19,2.67,36C136,118.67,147,112.7,154.35,103.16c3.29-4.27,5.87-9.26,10.26-12.4S176.14,87.36,179,92a12.74,12.74,0,0,1,1.45,6c.21,3.45.2,7,1.67,10.16s4.94,5.66,8.27,4.72c5.73-1.61,5.18-10.4,9.59-14.4,3.35-3,8.52-2.45,12.83-3.83,5-1.6,8.78-5.95,10.92-10.76,1.63-3.65,1.61-13.22,4.69-15.2C232.24,66.19,241,70.14,244.62,71.73Z"/><path class="cls-4" d="M97.27,129.73a15.68,15.68,0,0,1,8.13,0c8.45,2.27,27.38,8.27,31.44,17.4,5.26,11.85,23.68,30.27,23.68,30.27s25,25,19.74,42.1-25,36.84-25,36.84,5.26,81.58-21,102.63-36.84,6.58-36.84,26.32S15.79,466.88,0,428.73c0,0,7.89-71.05,5.26-96.05C2.67,308,6.47,154.31,97.27,129.73Z"/><path class="cls-4" d="M139.47,162.94s80.26,59.21,65.79,84.21c0,0-48.68,23.69-59.21,22.37s-51.31-47.37-61.84-51.31S68.42,143.21,139.47,162.94Z"/></g></g></svg>