<svg xmlns="http://www.w3.org/2000/svg" xmlns:xlink="http://www.w3.org/1999/xlink" viewBox="0 0 407.22 332.41"><defs><style>.cls-1,.cls-2,.cls-3{fill:#494949;}.cls-1{opacity:0.48;}.cls-1,.cls-17,.cls-2{isolation:isolate;}.cls-2{opacity:0.18;}.cls-4{fill:url(#linear-gradient);}.cls-5{fill:url(#linear-gradient-2);}.cls-6{fill:url(#linear-gradient-3);}.cls-7{fill:url(#linear-gradient-4);}.cls-8{fill:url(#linear-gradient-5);}.cls-9{fill:url(#linear-gradient-6);}.cls-10{fill:url(#linear-gradient-7);}.cls-11,.cls-17{fill:#fff;}.cls-12{fill:none;stroke:#fff;stroke-miterlimit:10;stroke-width:3.3px;}.cls-13{fill:url(#linear-gradient-8);}.cls-14{fill:url(#linear-gradient-9);}.cls-15{fill:url(#linear-gradient-10);}.cls-16{fill:url(#linear-gradient-11);}.cls-17{opacity:0.51;}</style><linearGradient id="linear-gradient" x1="154.44" y1="111.35" x2="204.69" y2="92.2" gradientTransform="matrix(1, 0, 0, -1, -4.89, 319.21)" gradientUnits="userSpaceOnUse"><stop offset="0.01"/><stop offset="0.12" stop-opacity="0.75"/><stop offset="1" stop-opacity="0"/></linearGradient><linearGradient id="linear-gradient-2" x1="128.94" y1="55.94" x2="113.69" y2="147.91" xlink:href="#linear-gradient"/><linearGradient id="linear-gradient-3" x1="132.25" y1="131.77" x2="163.54" y2="170.83" gradientUnits="userSpaceOnUse"><stop offset="0" stop-color="#fcdad2"/><stop offset="0.53" stop-color="#ffbab5"/></linearGradient><linearGradient id="linear-gradient-4" x1="107.28" y1="118.72" x2="180.7" y2="118.72" gradientUnits="userSpaceOnUse"><stop offset="0.01" stop-color="#3f3d64"/><stop offset="0.03" stop-color="#3f3d65"/><stop offset="1" stop-color="#3f3d7a"/></linearGradient><linearGradient id="linear-gradient-5" x1="134.35" y1="61.06" x2="159.47" y2="117.59" xlink:href="#linear-gradient"/><linearGradient id="linear-gradient-6" x1="179.55" y1="240.21" x2="210.99" y2="240.21" gradientUnits="userSpaceOnUse"><stop offset="0.01" stop-color="#fcdad2"/><stop offset="0.1" stop-color="#fdd1ca"/><stop offset="0.28" stop-color="#fec4be"/><stop offset="0.51" stop-color="#ffbcb7"/><stop offset="1" stop-color="#ffbab5"/></linearGradient><linearGradient id="linear-gradient-7" x1="216.42" y1="234.98" x2="248.11" y2="234.98" gradientUnits="userSpaceOnUse"><stop offset="0.01" stop-color="#fcdad2"/><stop offset="0.1" stop-color="#fdcec8"/><stop offset="0.24" stop-color="#fec3bd"/><stop offset="0.44" stop-color="#ffbcb7"/><stop offset="1" stop-color="#ffbab5"/></linearGradient><linearGradient id="linear-gradient-8" x1="262.98" y1="118.89" x2="219.92" y2="-25.79" gradientTransform="matrix(1, 0, 0, -1, 0, 331.99)" xlink:href="#linear-gradient"/><linearGradient id="linear-gradient-9" x1="85.31" y1="112.03" x2="127.03" y2="-85.82" gradientTransform="matrix(1, 0, 0, -1, 0, 331.99)" xlink:href="#linear-gradient"/><linearGradient id="linear-gradient-10" x1="264.92" y1="63.93" x2="265.51" y2="91.15" gradientTransform="matrix(1, 0, 0, -1, -4.89, 319.2)" xlink:href="#linear-gradient"/><linearGradient id="linear-gradient-11" x1="307.69" y1="47.12" x2="311.73" y2="149.41" xlink:href="#linear-gradient"/></defs><title>rhul0</title><g id="Layer_2" data-name="Layer 2"><g id="Layer_1-2" data-name="Layer 1"><rect class="cls-1" x="36.21" y="12.3" width="370.4" height="237.25" rx="8.95"/><path class="cls-2" d="M399.28,266.87c-.27,7.77-2,15.68-6.4,22.12-5.48,8.11-14.38,13.13-23,17.85l-24.44,13.45c-10.71,5.9-22,11.94-34.21,12.11-8.64.13-17-2.72-25.31-5.11-38.81-11.2-79.69-12.77-119.81-9.94-20.55,1.45-41,4-61.36,7.07-16.29,2.42-35.84,10.47-50.53.94-16-10.4-25.82-27.24-34.86-43.59C11.49,267.58,3.51,253,.91,237c-4-24.74,5.58-50.15,20.57-70.25a162,162,0,0,1,14.73-17v90.83a9,9,0,0,0,8.95,9H397.65A70.09,70.09,0,0,1,399.28,266.87Z"/><path class="cls-2" d="M267.58,12.31H173.33a57.31,57.31,0,0,1,11.48-6.76C192.26,2.3,200.38.85,208.48.27,228.86-1.2,249.3,3.3,267.58,12.31Z"/><path class="cls-3" d="M181.34,219.69a14.42,14.42,0,0,0,3.27,3.16,15.11,15.11,0,0,0,6,1.78l31.92,4.81a2,2,0,0,1,.89.3,1.82,1.82,0,0,1,.47,1.44,56.14,56.14,0,0,1-2.39,17.66,1.89,1.89,0,0,1-2.11,1.68c-10.74.91-21.53.62-32.3.33a21.65,21.65,0,0,1-5.38-.59c-3-.84-5.45-2.89-7.71-5-4.85-4.51-24.48-22.64-25.67-25.1a66.58,66.58,0,0,1-3.8-10.92c-1-3.6,6.31-4.05,6.16-7.79a24.5,24.5,0,0,1,.92-7.66,13.15,13.15,0,0,1,3.2-5.92c1.1-1-.6-7.78.92-7.86,1.76,6,9.72,18,13.18,23.14A193,193,0,0,0,181.34,219.69Z"/><path class="cls-4" d="M181.34,219.69a14.42,14.42,0,0,0,3.27,3.16,15.11,15.11,0,0,0,6,1.78l31.92,4.81a2,2,0,0,1,.89.3,1.82,1.82,0,0,1,.47,1.44,56.14,56.14,0,0,1-2.39,17.66,1.89,1.89,0,0,1-2.11,1.68c-10.74.91-21.53.62-32.3.33a21.65,21.65,0,0,1-5.38-.59c-3-.84-5.45-2.89-7.71-5-4.85-4.51-24.48-22.64-25.67-25.1a66.58,66.58,0,0,1-3.8-10.92c-1-3.6,6.31-4.05,6.16-7.79a24.5,24.5,0,0,1,.92-7.66,13.15,13.15,0,0,1,3.2-5.92c1.1-1-.6-7.78.92-7.86,1.76,6,9.72,18,13.18,23.14A193,193,0,0,0,181.34,219.69Z"/><path class="cls-3" d="M100.57,169a59.55,59.55,0,0,0-6,6.2c-4.42,5.43-7.36,11.89-10.1,18.33-7.29,17.14-13.64,35.47-11.75,54a7.05,7.05,0,0,0,.88,3.18A6.11,6.11,0,0,0,77,253c3.51,1.12,7.26,1.17,11,1.2,14.41.13,28.84.26,43.24-.44,2.23-.11,4.59-.28,6.44-1.54a10.38,10.38,0,0,0,3.14-3.93c3.87-7.28,5-15.7,8-23.36,4-10,15-19.09,12.68-29.63C151.61,150.5,105.11,164.9,100.57,169Z"/><path class="cls-5" d="M100.57,169a59.55,59.55,0,0,0-6,6.2c-4.42,5.43-7.36,11.89-10.1,18.33-7.29,17.14-13.64,35.47-11.75,54a7.05,7.05,0,0,0,.88,3.18A6.11,6.11,0,0,0,77,253c3.51,1.12,7.26,1.17,11,1.2,14.41.13,28.84.26,43.24-.44,2.23-.11,4.59-.28,6.44-1.54a10.38,10.38,0,0,0,3.14-3.93c3.87-7.28,5-15.7,8-23.36,4-10,15-19.09,12.68-29.63C151.61,150.5,105.11,164.9,100.57,169Z"/><path class="cls-6" d="M165.69,132c-1.69,8.21-3.46,16.64-8,23.71a18.23,18.23,0,0,1-6.93,6.82c-2.93,1.47-6.65,1.67-9.39-.13-1.37-.89-2.87-2.29-4.36-1.63-1.08.49-1.43,1.83-1.58,3a30.57,30.57,0,0,0,.12,8.65,7.28,7.28,0,0,1,.14,2.46,4,4,0,0,1-3.25,3,7.71,7.71,0,0,1-4.53-.71,14.65,14.65,0,0,1-8.44-10.82,35,35,0,0,1-.3-4.8c-.19-7.12-1.32-14.21-1.09-21.32s2-14.51,6.83-19.76a31.3,31.3,0,0,1,9.76-6.76c5.45-2.6,11.53-4.43,17.49-3.48a16.62,16.62,0,0,1,11.57,7.72C166.85,122.7,166.86,126.27,165.69,132Z"/><path class="cls-7" d="M180.58,113.87a16.56,16.56,0,0,0-8.75-16.66c-2.65-1.32-5.6-1.88-8.46-2.64-6.7-1.8-13.13-4.78-20-5.42s-14.77,1.77-17.83,8c-.56,1.14-1.11,2.52-2.34,2.82a4.84,4.84,0,0,1-2-.18c-4.59-.81-8.72,3.11-10.79,7.28-3.34,6.75-3.51,14.62-2.78,22.11.67,6.93,2.44,14.42,8,18.64.55.42,1.36.8,1.89.35a1.55,1.55,0,0,0,.43-.93,30.22,30.22,0,0,0,.62-8c-.11-2-.43-4.12.09-6.09s2.19-3.84,4.23-3.78c1.89,0,3.41,1.76,3.88,3.6a13.25,13.25,0,0,1-.21,5.64c.3.75,1.35-.15,1.53-.93,1.38-6.28,1.69-13.31,6-18A7.79,7.79,0,0,1,136,123a5,5,0,0,1,5.15-1.28,12.55,12.55,0,0,1,3.44,2.25C155.23,132.21,178.35,129.75,180.58,113.87Z"/><path class="cls-3" d="M103.63,179.27c-3.36,2.44-5,6.73-5.1,10.87s4.28,30.41,8.41,37.87c3.2,5.8,9.87,20.94,20,25.12,3,1.24,47.35.72,67.93-1.51-.13-4.87-.37-9.74-.69-14.61a2.76,2.76,0,0,0-.55-1.79c-.52-.54-1.26-4.07-2-4.07-12,0-24.1,3.72-36.1,4a20.7,20.7,0,0,1-5.21-.31,15,15,0,0,1-4-1.64c-9.26-5.24-14.38-15.53-18-25.54-2.77-7.72-5-15.71-9-22.92-1.42-2.57-2.69-5.07-5.49-6.2C110.54,177.21,106.68,177.06,103.63,179.27Z"/><path class="cls-8" d="M103.63,179.27c-3.36,2.44-5,6.73-5.1,10.87s4.28,30.41,8.41,37.87c3.2,5.8,9.87,20.94,20,25.12,3,1.24,47.35.72,67.93-1.51-.13-4.87-.37-9.74-.69-14.61a2.76,2.76,0,0,0-.55-1.79c-.52-.54-1.26-4.07-2-4.07-12,0-24.1,3.72-36.1,4a20.7,20.7,0,0,1-5.21-.31,15,15,0,0,1-4-1.64c-9.26-5.24-14.38-15.53-18-25.54-2.77-7.72-5-15.71-9-22.92-1.42-2.57-2.69-5.07-5.49-6.2C110.54,177.21,106.68,177.06,103.63,179.27Z"/><path class="cls-9" d="M193.11,230.21c6.23-.59,13.15.8,17.1,5.65a3,3,0,0,1,.78,1.6,2.63,2.63,0,0,1-.48,1.51c-2.33,3.87-7.39,4.79-11.64,6.32a30.72,30.72,0,0,0-6.29,3.12,9.9,9.9,0,0,1-3.76,1.86c-3,.45-5.49-2.23-6.85-4.91-1.56-3-4-9.16-1-12C183.42,231.11,190,230.49,193.11,230.21Z"/><path class="cls-10" d="M244.7,228.67a8.62,8.62,0,0,1,2.79,2.55,3.68,3.68,0,0,1,.26,3.63,5,5,0,0,1-1.87,1.68c-5.53,3.29-12.31,3.88-17.91,7a9.61,9.61,0,0,1-3.86,1.68,5.32,5.32,0,0,1-4.28-2,13.61,13.61,0,0,1-2.31-4.27C211,221.74,235.28,222.67,244.7,228.67Z"/><path class="cls-11" d="M86.23,221h25.91v21.28a7.5,7.5,0,0,1-7.5,7.5H93.73a7.5,7.5,0,0,1-7.5-7.5V221Z"/><path class="cls-12" d="M110.39,226.15h7.85a6.25,6.25,0,0,1,6.25,6.25V235a6.25,6.25,0,0,1-6.25,6.25h-7.85V226.15Z"/><path class="cls-3" d="M50.68,249.31h351a5.56,5.56,0,0,1,5.56,5.56h0a5.55,5.55,0,0,1-5.56,5.55h-351a5.55,5.55,0,0,1-5.56-5.55h0A5.56,5.56,0,0,1,50.68,249.31Z"/><rect class="cls-3" x="138.75" y="260.59" width="198.39" height="68.81"/><rect class="cls-3" x="62.17" y="260.59" width="77.93" height="68.81"/><rect class="cls-13" x="140.06" y="260.59" width="197.09" height="68.81"/><rect class="cls-14" x="62.17" y="260.59" width="77.93" height="68.81"/><path class="cls-2" d="M406.6,21.26v43.8H36.21V21.26a9,9,0,0,1,8.95-9H397.65A9,9,0,0,1,406.6,21.26Z"/><path class="cls-3" d="M324.52,249.12H196.08a6.51,6.51,0,0,1-6.52-6.52h0a6.52,6.52,0,0,1,6.52-6.52H324.52A6.52,6.52,0,0,1,331,242.6h0A6.51,6.51,0,0,1,324.52,249.12Z"/><path class="cls-15" d="M324.52,249.12H196.08a6.51,6.51,0,0,1-6.52-6.52h0a6.52,6.52,0,0,1,6.52-6.52H324.52A6.52,6.52,0,0,1,331,242.6h0A6.51,6.51,0,0,1,324.52,249.12Z"/><path class="cls-3" d="M240.62,249.14h98.57l26-65.93a5.79,5.79,0,0,0-3.28-7.51,5.87,5.87,0,0,0-2.11-.41H282.45a18.69,18.69,0,0,0-17.34,11.82Z"/><path class="cls-3" d="M245.63,249.21h93.62l24.69-62.63a5.51,5.51,0,0,0-5.12-7.52H285.36a17.75,17.75,0,0,0-16.5,11.22Z"/><path class="cls-16" d="M245.63,249.21h93.62l24.69-62.63a5.51,5.51,0,0,0-5.12-7.52H285.36a17.75,17.75,0,0,0-16.5,11.22Z"/><rect class="cls-17" x="213.02" y="154.6" width="138.6" height="7.8"/><rect class="cls-11" x="213.02" y="141.25" width="98.53" height="7.8"/><rect class="cls-11" x="325.02" y="141.25" width="65.96" height="7.8"/><rect class="cls-11" x="289.34" y="91.87" width="101.41" height="6.93"/><rect class="cls-17" x="268.1" y="104.18" width="108.49" height="6.93"/><rect class="cls-11" x="214.9" y="91.87" width="66.7" height="6.93"/><rect class="cls-11" x="244.16" y="116.12" width="146.59" height="6.93"/><rect class="cls-17" x="214.9" y="116.12" width="21.52" height="6.93"/><rect class="cls-17" x="293.99" y="128.43" width="96.76" height="6.93"/><rect class="cls-11" x="214.9" y="128.43" width="66.7" height="6.93"/><rect class="cls-11" x="214.9" y="103.89" width="42.89" height="6.93"/><rect class="cls-11" x="252.25" y="68.54" width="101.41" height="6.93"/><rect class="cls-17" x="231.01" y="80.85" width="108.49" height="6.93"/><rect class="cls-11" x="177.82" y="68.54" width="66.7" height="6.93"/><rect class="cls-11" x="251.35" y="54.19" width="101.41" height="6.93"/><rect class="cls-11" x="176.92" y="41.17" width="66.7" height="6.93"/><rect class="cls-11" x="176.92" y="29.29" width="66.7" height="6.93"/><rect class="cls-11" x="177.82" y="80.56" width="42.89" height="6.93"/></g></g></svg>